<svg xmlns="http://www.w3.org/2000/svg" width="64" height="64" fill="none" overflow="visible"><path fill="#3AA63A" d="M23.292 55.676H.5V7.5h22.787c1.201.258 5.63 1.37 8.821 5.675 2.534 3.417 2.895 6.976 2.968 8.373a13.035 13.035 0 0 1-.584 5.245 12.863 12.863 0 0 1-2.817 4.788 14.718 14.718 0 0 1 2.6 4.625c.77 2.247.843 4.209.801 5.412.062 1.122.155 5.076-2.533 8.761-3.351 4.6-8.413 5.204-9.256 5.287Zm-1.965-19.27H9.461v9.632h11.866c2.607 0 4.717-2.158 4.717-4.819 0-2.662-2.11-4.82-4.717-4.82Zm0-19.268H9.461v9.633h11.866c2.607 0 4.717-2.157 4.717-4.818 0-2.662-2.11-4.82-4.717-4.82ZM63.5 55.676H34.818a23.612 23.612 0 0 0 4.804-9.632H63.5Zm0-19.27H39.534a8.732 8.732 0 0 0-1.986-4.82 9.534 9.534 0 0 0 1.381-2.409 9.756 9.756 0 0 0 .605-2.411H63.5Zm0-19.268H39.622a23.653 23.653 0 0 0-4.804-9.633H63.5Z"/><path fill="transparent" d="M0 0h64v64H0Z"/></svg>