<svg xmlns="http://www.w3.org/2000/svg" width="152" height="40" fill="none" overflow="visible"><path d="M 138.905 22.109 L 151.997 22.109 L 151.997 25.878 L 138.905 25.878 Z M 138.905 29.17 L 151.997 29.17 L 151.997 32.939 L 138.905 32.939 Z M 138.905 36.231 L 151.997 36.231 L 151.997 40 L 138.905 40 Z M 135.68 39.997 L 130.778 39.997 L 127.28 34.015 L 122.081 34.015 L 122.081 30.215 L 128.882 30.215 C 130.139 30.236 131.148 29.195 131.101 28.008 C 131.054 26.879 130.07 25.946 128.882 25.971 L 122.081 25.971 L 122.081 22.106 L 129.176 22.106 C 129.424 22.118 132.843 22.345 134.301 25.066 C 134.887 26.16 134.928 27.233 134.893 27.862 C 134.943 28.206 135.178 30.106 133.859 31.736 C 132.981 32.818 131.872 33.218 131.411 33.354 L 135.683 40 Z M 114.693 22.109 L 118.733 22.109 L 118.733 40 L 114.693 40 Z M 98.182 40 L 98.182 30.162 L 104.391 30.162 C 106.143 30.357 107.45 29 107.397 27.831 C 107.344 26.718 106.04 25.537 104.391 25.748 L 98.182 25.748 L 98.182 22.106 L 105.698 22.106 C 106.071 22.118 108.528 22.242 110.158 24.313 C 111.277 25.736 111.38 27.285 111.39 27.831 C 111.409 28.172 111.487 30.475 109.666 32.242 C 107.933 33.925 105.786 33.847 105.429 33.829 L 102.473 33.829 L 102.473 40 Z M 79.214 40 L 75.149 40 L 75.149 31.65 L 79.214 35.515 Z M 94.982 22.109 L 94.982 40 L 90.989 40 L 90.989 30.757 L 85.276 35.887 L 75.149 26.817 L 75.149 22.109 L 85.066 30.633 Z M 71.946 22.109 L 71.946 25.726 L 62.114 25.726 L 62.114 29.071 L 71.946 29.071 L 71.946 32.936 L 62.114 32.936 L 62.114 36.16 L 71.946 36.16 L 71.946 40 L 57.999 40 L 57.999 22.109 Z M 144.339 0 C 144.278 0.829 144.418 1.477 144.54 1.878 C 144.637 2.196 144.768 2.618 145.093 3.08 C 145.462 3.6 145.875 3.885 146.444 4.267 C 147.025 4.659 147.134 4.637 147.88 5.084 C 148.235 5.298 148.822 5.647 149.434 6.151 C 149.908 6.543 150.535 7.047 151.052 7.876 C 151.627 8.797 151.821 9.663 151.897 10.174 C 151.973 10.697 152.253 12.391 151.371 14.242 C 150.888 15.257 150.228 15.964 149.723 16.404 C 149.434 16.652 148.987 16.992 148.375 17.282 C 147.393 17.747 146.538 17.83 145.857 17.879 C 145.206 17.925 144.364 17.977 143.302 17.714 C 142.155 17.429 141.389 16.937 141.203 16.811 C 140.595 16.407 140.169 15.973 139.895 15.652 C 139.683 15.422 139.4 15.058 139.193 14.554 C 139.062 14.23 138.995 13.936 138.962 13.7 L 142.119 11.984 C 142.143 12.119 142.183 12.284 142.256 12.462 C 142.341 12.676 142.444 12.844 142.533 12.972 C 142.663 13.119 142.84 13.297 143.068 13.474 C 143.241 13.609 143.497 13.817 143.889 13.96 C 144.347 14.13 144.834 14.21 145.322 14.196 C 145.513 14.193 145.744 14.171 146 14.116 C 146.295 14.055 146.541 13.967 146.733 13.881 C 146.888 13.804 147.08 13.688 147.274 13.52 C 147.521 13.309 147.682 13.089 147.785 12.923 C 148.189 12.269 148.32 11.481 148.15 10.73 C 148.004 10.36 147.743 9.822 147.259 9.302 C 146.645 8.647 146.198 8.589 144.686 7.647 C 143.926 7.173 143.46 6.879 142.94 6.399 C 142.338 5.844 141.829 5.196 141.431 4.478 C 141.249 4.209 141.015 3.805 140.835 3.279 C 140.653 2.744 140.61 2.319 140.565 1.851 C 140.519 1.389 140.492 0.759 140.565 0 Z M 136.182 1.422 L 136.173 3.912 C 136.173 3.912 135.102 4.435 134.655 4.496 C 134.229 4.552 133.898 4.503 133.377 4.429 C 132.784 4.344 132.611 4.252 131.954 4.12 C 131.632 4.056 131.157 3.976 130.567 3.928 L 130.567 17.912 L 126.647 17.912 L 126.647 3.903 L 120.573 3.903 L 120.573 0 L 136.185 0 C 136.173 0.324 136.182 1.422 136.182 1.422 Z M 95.033 8.956 C 95.033 13.902 90.665 17.912 85.278 17.912 C 79.892 17.912 75.524 13.902 75.524 8.956 C 75.524 4.01 79.892 0 85.278 0 C 90.665 0 95.033 4.01 95.033 8.956 Z M 91.258 8.956 C 91.258 5.922 88.581 3.466 85.278 3.466 C 81.975 3.466 79.299 5.922 79.299 8.956 C 79.299 11.991 81.975 14.447 85.278 14.447 C 88.581 14.447 91.258 11.991 91.258 8.956 Z M 117.89 8.956 C 117.89 13.902 113.522 17.912 108.136 17.912 C 102.749 17.912 98.381 13.902 98.381 8.956 C 98.381 4.01 102.749 0 108.136 0 C 113.525 0 117.89 4.01 117.89 8.956 Z M 114.115 8.956 C 114.115 5.922 111.439 3.466 108.136 3.466 C 104.832 3.466 102.156 5.922 102.156 8.956 C 102.156 11.991 104.832 14.447 108.136 14.447 C 111.439 14.447 114.115 11.991 114.115 8.956 Z M 57.999 0 L 67.093 0 C 67.57 0.095 69.341 0.511 70.612 2.111 C 71.622 3.38 71.768 4.704 71.795 5.224 C 71.835 5.634 71.85 6.35 71.564 7.176 C 71.254 8.063 70.743 8.653 70.439 8.956 C 70.74 9.293 71.178 9.868 71.476 10.675 C 71.783 11.51 71.813 12.241 71.795 12.688 C 71.819 13.107 71.856 14.575 70.785 15.946 C 69.447 17.655 67.427 17.879 67.093 17.912 L 57.999 17.912 Z M 68.188 12.556 L 68.188 12.523 C 68.188 11.541 67.397 10.749 66.424 10.749 L 61.572 10.749 L 61.572 14.331 L 66.424 14.331 C 67.4 14.331 68.188 13.535 68.188 12.556 Z M 68.188 5.39 L 68.188 5.356 C 68.188 4.374 67.397 3.582 66.424 3.582 L 61.572 3.582 L 61.572 7.164 L 66.424 7.164 C 67.4 7.164 68.188 6.368 68.188 5.39 Z M 47.999 0 L 47.999 40 L 0 40 L 0 0 Z M 18.799 33.763 C 19.299 33.714 22.301 33.36 24.288 30.665 C 25.882 28.505 25.827 26.188 25.79 25.529 C 25.815 24.825 25.772 23.674 25.315 22.357 C 24.87 21.08 24.22 20.178 23.773 19.646 C 24.223 19.169 24.984 18.237 25.444 16.84 C 25.873 15.538 25.851 14.409 25.79 13.766 C 25.747 12.948 25.533 10.862 24.03 8.858 C 22.138 6.335 19.51 5.683 18.799 5.532 L 5.286 5.532 L 5.286 33.769 L 18.802 33.769 Z M 42.645 28.123 L 28.485 28.123 C 28.262 29.049 27.945 29.949 27.538 30.809 C 26.934 32.083 26.229 33.065 25.637 33.769 L 42.645 33.769 Z M 42.645 16.825 L 28.433 16.825 C 28.387 17.197 28.292 17.689 28.074 18.237 C 27.826 18.865 27.507 19.332 27.256 19.649 C 27.507 19.948 27.845 20.418 28.099 21.062 C 28.317 21.615 28.4 22.111 28.433 22.474 L 42.645 22.474 Z M 42.645 5.535 L 25.637 5.535 C 26.394 6.436 27.033 7.431 27.538 8.495 C 27.945 9.356 28.262 10.256 28.485 11.182 L 42.645 11.182 Z M 17.637 22.471 C 19.182 22.471 20.433 23.735 20.433 25.295 C 20.433 26.855 19.182 28.12 17.637 28.12 L 10.6 28.12 L 10.6 22.474 L 17.637 22.474 Z M 17.637 11.178 C 19.182 11.178 20.433 12.443 20.433 14.003 C 20.433 15.563 19.182 16.828 17.637 16.828 L 10.6 16.828 L 10.6 11.182 L 17.637 11.182 Z" fill="rgb(17, 17, 17)"></path></svg>